<svg width="15" height="14" viewBox="0 0 15 14" fill="none" xmlns="http://www.w3.org/2000/svg">
<path d="M5.99529 11.991C5.99524 12.1148 6.02967 12.2361 6.09475 12.3415C6.15982 12.4468 6.25295 12.5319 6.36369 12.5872L7.69604 13.2534C7.79763 13.3041 7.91051 13.3281 8.02396 13.323C8.13741 13.3178 8.24766 13.2838 8.34425 13.224C8.44083 13.1643 8.52054 13.0808 8.5758 12.9816C8.63106 12.8824 8.66004 12.7707 8.65999 12.6572V7.99393C8.66014 7.66377 8.78288 7.34541 9.0044 7.1006L13.8162 1.77853C13.9024 1.68297 13.9591 1.56447 13.9795 1.43737C13.9998 1.31026 13.9828 1.17999 13.9307 1.06231C13.8786 0.944622 13.7934 0.844566 13.6856 0.774237C13.5778 0.703908 13.4519 0.666319 13.3232 0.666016H1.33207C1.20324 0.666062 1.07718 0.703465 0.969173 0.773694C0.861164 0.843922 0.775836 0.943963 0.723525 1.0617C0.671214 1.17943 0.654164 1.30981 0.674441 1.43704C0.694718 1.56427 0.751452 1.68289 0.837771 1.77853L5.65088 7.1006C5.87241 7.34541 5.99514 7.66377 5.99529 7.99393V11.991Z" stroke="#717182" stroke-width="1.33235" stroke-linecap="round" stroke-linejoin="round"/>
</svg>
