<svg width="16" height="16" viewBox="0 0 16 16" fill="none" xmlns="http://www.w3.org/2000/svg">
<path d="M13.9796 8.3183C13.9172 9.47488 13.5211 10.5886 12.8392 11.5249C12.1573 12.4611 11.2188 13.1798 10.1372 13.5941C9.05552 14.0084 7.87704 14.1004 6.74418 13.8592C5.61131 13.618 4.57257 13.0538 3.75351 12.2348C2.93445 11.4159 2.37015 10.3772 2.12881 9.24435C1.88748 8.11151 1.97944 6.93302 2.39359 5.85133C2.80774 4.76965 3.52634 3.83108 4.46253 3.14908C5.39872 2.46708 6.51241 2.07085 7.66898 2.0083C7.93878 1.99364 8.08001 2.31474 7.93678 2.54323C7.45773 3.3097 7.2526 4.21591 7.35487 5.11397C7.45715 6.01203 7.86078 6.84891 8.49991 7.48803C9.13904 8.12716 9.97592 8.5308 10.874 8.63307C11.772 8.73535 12.6782 8.53022 13.4447 8.05117C13.6739 7.90794 13.9943 8.0485 13.9796 8.3183Z" stroke="#0A0A0A" stroke-width="1.33235" stroke-linecap="round" stroke-linejoin="round"/>
</svg>
