<svg width="9" height="11" viewBox="0 0 9 11" fill="none" xmlns="http://www.w3.org/2000/svg">
<path d="M0.499512 10.489V1.49802C0.499512 1.42048 0.517566 1.344 0.552245 1.27464C0.586924 1.20528 0.637276 1.14495 0.699311 1.09842C1.21808 0.709346 1.84905 0.499023 2.49751 0.499023C3.996 0.499023 4.995 1.49802 6.16033 1.49802C6.82633 1.49802 7.33699 1.36482 7.6923 1.09842C7.76651 1.04276 7.85475 1.00887 7.94714 1.00054C8.03953 0.99221 8.13241 1.00977 8.21538 1.05126C8.29835 1.09274 8.36813 1.15651 8.4169 1.23542C8.46566 1.31433 8.4915 1.40526 8.4915 1.49802V6.49301C8.4915 6.57056 8.47344 6.64704 8.43876 6.71639C8.40408 6.78575 8.35373 6.84608 8.2917 6.89261C7.77293 7.28169 7.14196 7.49201 6.4935 7.49201C4.995 7.49201 3.996 6.49301 2.49751 6.49301C1.76031 6.49303 1.04897 6.76476 0.499512 7.25625" stroke="white" stroke-width="0.998998" stroke-linecap="round" stroke-linejoin="round"/>
</svg>
